<svg xmlns="http://www.w3.org/2000/svg" viewBox="0 0 1400 1050"><defs><style>.cls-1{fill:#fcee22;}.cls-2{fill:#fff;}.cls-3{fill:#ff57ff;}.cls-4{fill:none;stroke:#2943f3;stroke-linecap:round;stroke-linejoin:round;stroke-width:8.4px;}.cls-5{fill:#2943f3;}</style></defs><title>rock-paper-scissors-line-icons</title><g id="Background"><rect class="cls-1" width="1400" height="1050"/></g><g id="Icons"><path class="cls-2" d="M1056.48,556.57a43.21,43.21,0,0,1,1.69,12,43.92,43.92,0,1,1-1.69-12Zm-23.38,12a18.81,18.81,0,1,0-18.81,18.8A18.82,18.82,0,0,0,1033.1,568.62Z"/><path class="cls-2" d="M1152.19,524.74a43.9,43.9,0,1,1-12.07,1.69A43.88,43.88,0,0,1,1152.19,524.74Zm18.8,43.88a18.81,18.81,0,1,0-18.8,18.8A18.81,18.81,0,0,0,1171,568.62Z"/><path class="cls-2" d="M1139.64,524.74l.48,1.69a44,44,0,0,0-28.31,25l-3.5-1.59-21.57-25.07-1.26-1,27.35-32.45,1.74,1.46Zm-56.4-72.09L992.5,336.71c-15.82,29.05-11.67,66.24,10,90.2l51.83,60.23,3.1,2.44,27.71-35.4Z"/><path class="cls-3" d="M1109.27,547.38a2.87,2.87,0,1,0-4.58-1.77l1.92,2.23A2.91,2.91,0,0,0,1109.27,547.38Z"/><path class="cls-3" d="M1107,532.76a2.88,2.88,0,1,0,4,.51A2.87,2.87,0,0,0,1107,532.76Z"/><path class="cls-3" d="M1114.82,545.63c.31-.5.63-1,1-1.48A2.82,2.82,0,0,0,1114.82,545.63Z"/><path class="cls-3" d="M1087.62,524.18a2.87,2.87,0,1,0,1.15-4.4l-1.67,2A2.84,2.84,0,0,0,1087.62,524.18Z"/><path class="cls-3" d="M1098.2,521.42a2.87,2.87,0,1,0,4,.5A2.87,2.87,0,0,0,1098.2,521.42Z"/><path class="cls-3" d="M1096.94,531.49a2.87,2.87,0,1,0,4,.51A2.88,2.88,0,0,0,1096.94,531.49Z"/><path class="cls-3" d="M1132.47,525.72a2.88,2.88,0,1,0-1.62,4.56q.62-.35,1.26-.66A2.88,2.88,0,0,0,1132.47,525.72Z"/><path class="cls-3" d="M1121.12,534.53a2.88,2.88,0,1,0-1.28,4.45c.56-.61,1.15-1.21,1.74-1.79A2.86,2.86,0,0,0,1121.12,534.53Z"/><path class="cls-3" d="M1121.88,528.49a2.87,2.87,0,1,0-4-.51A2.88,2.88,0,0,0,1121.88,528.49Z"/><path class="cls-3" d="M1129.7,515.14a2.88,2.88,0,1,0,4.59,2.76l-2.62-3.35A2.89,2.89,0,0,0,1129.7,515.14Z"/><path class="cls-3" d="M1137.93,527.12q1.08-.37,2.19-.69l-.15-.53a2.93,2.93,0,0,0-1.46.58A3.17,3.17,0,0,0,1137.93,527.12Z"/><path class="cls-3" d="M1114.34,507.07a2.88,2.88,0,1,0-4-.51A2.87,2.87,0,0,0,1114.34,507.07Z"/><path class="cls-3" d="M1099.47,511.34a2.87,2.87,0,1,0,4,.51A2.88,2.88,0,0,0,1099.47,511.34Z"/><path class="cls-3" d="M1104.26,505.8a2.88,2.88,0,0,0,.51-4,2.68,2.68,0,0,0-.44-.45l-3.7,4.39A2.88,2.88,0,0,0,1104.26,505.8Z"/><path class="cls-3" d="M1111.57,496.48a2.88,2.88,0,0,0,4,.51,2.77,2.77,0,0,0,1-1.65l-2.06-2.64-1-.83a2.77,2.77,0,0,0-1.49.58A2.88,2.88,0,0,0,1111.57,496.48Z"/><path class="cls-3" d="M1113.07,517.14a2.87,2.87,0,1,0-4-.5A2.88,2.88,0,0,0,1113.07,517.14Z"/><path class="cls-3" d="M1120.89,503.8a2.87,2.87,0,1,0,3.53,4.53,2.84,2.84,0,0,0,1-1.71l-2.67-3.41A2.81,2.81,0,0,0,1120.89,503.8Z"/><path class="cls-3" d="M1123.15,518.41a2.88,2.88,0,1,0-4-.51A2.87,2.87,0,0,0,1123.15,518.41Z"/><path class="cls-3" d="M1112.31,523.19a2.87,2.87,0,1,0-.51,4A2.88,2.88,0,0,0,1112.31,523.19Z"/><path class="cls-3" d="M1052.88,474.77a2.88,2.88,0,1,0,4,.51A2.88,2.88,0,0,0,1052.88,474.77Z"/><path class="cls-3" d="M1046.83,474a2.87,2.87,0,0,0-4-.5l-.09.08,3.74,4.34A2.86,2.86,0,0,0,1046.83,474Z"/><path class="cls-3" d="M1053.64,468.73a2.88,2.88,0,1,0,.51-4A2.87,2.87,0,0,0,1053.64,468.73Z"/><path class="cls-3" d="M1055.65,485.36a2.89,2.89,0,0,0-3.52-.83l2.25,2.61,1.57,1.24A2.88,2.88,0,0,0,1055.65,485.36Z"/><path class="cls-3" d="M1063,476a2.88,2.88,0,0,0-.51,4,2.84,2.84,0,0,0,1.66,1l3.19-4.06a3.12,3.12,0,0,0-.31-.49A2.87,2.87,0,0,0,1063,476Z"/><path class="cls-3" d="M1035.26,452.08a2.87,2.87,0,1,0,4,.51A2.89,2.89,0,0,0,1035.26,452.08Z"/><path class="cls-3" d="M1029.21,451.32a2.87,2.87,0,0,0-5,.8l3.25,3.78a3,3,0,0,0,1.22-.54A2.88,2.88,0,0,0,1029.21,451.32Z"/><path class="cls-3" d="M1036,446a2.88,2.88,0,1,0,.51-4A2.87,2.87,0,0,0,1036,446Z"/><path class="cls-3" d="M1038,462.67a2.88,2.88,0,0,0-4-.51,3,3,0,0,0-.57.62L1037,467a3,3,0,0,0,.48-.3A2.87,2.87,0,0,0,1038,462.67Z"/><path class="cls-3" d="M1044.83,457.38a2.87,2.87,0,1,0,.51-4A2.88,2.88,0,0,0,1044.83,457.38Z"/><path class="cls-3" d="M1044.07,463.43a2.88,2.88,0,1,0,4,.51A2.88,2.88,0,0,0,1044.07,463.43Z"/><path class="cls-3" d="M1017.64,429.4a2.87,2.87,0,1,0,4,.5A2.88,2.88,0,0,0,1017.64,429.4Z"/><path class="cls-3" d="M1011.08,432.67a2.87,2.87,0,1,0-4.06-.57l.17.21A2.87,2.87,0,0,0,1011.08,432.67Z"/><path class="cls-3" d="M1018.4,423.35a2.88,2.88,0,1,0,.5-4A2.88,2.88,0,0,0,1018.4,423.35Z"/><path class="cls-3" d="M1019.9,444a2.88,2.88,0,0,0-3.53-4.54,2.91,2.91,0,0,0-1.1,2.23l2.49,2.89A2.92,2.92,0,0,0,1019.9,444Z"/><path class="cls-3" d="M1027.21,434.69a2.87,2.87,0,1,0,.51-4A2.87,2.87,0,0,0,1027.21,434.69Z"/><path class="cls-3" d="M1026.45,440.74a2.87,2.87,0,1,0,4,.51A2.88,2.88,0,0,0,1026.45,440.74Z"/><path class="cls-3" d="M1000,406.71a2.87,2.87,0,1,0,4,.5A2.87,2.87,0,0,0,1000,406.71Z"/><path class="cls-3" d="M993.46,410a2.87,2.87,0,1,0-3.52-4.54,2.53,2.53,0,0,0-.62.69c.64,1.5,1.32,3,2.06,4.43A2.84,2.84,0,0,0,993.46,410Z"/><path class="cls-3" d="M1000.78,400.66a2.87,2.87,0,1,0,.5-4A2.88,2.88,0,0,0,1000.78,400.66Z"/><path class="cls-3" d="M998.75,416.78a2.87,2.87,0,1,0,4,.51A2.89,2.89,0,0,0,998.75,416.78Z"/><path class="cls-3" d="M1009.59,412a2.87,2.87,0,1,0,.5-4A2.87,2.87,0,0,0,1009.59,412Z"/><path class="cls-3" d="M1008.83,418.05a2.87,2.87,0,1,0,4,.51A2.87,2.87,0,0,0,1008.83,418.05Z"/><path class="cls-3" d="M985.92,388.56a2.87,2.87,0,0,0-2.49-5.05c.2,1.89.48,3.77.82,5.64A2.92,2.92,0,0,0,985.92,388.56Z"/><path class="cls-3" d="M987.19,378.48a2.88,2.88,0,0,0-3.53-4.54,2.9,2.9,0,0,0-.71.82c0,1,0,2,0,3,0,.08.09.16.15.24A2.89,2.89,0,0,0,987.19,378.48Z"/><path class="cls-3" d="M996,389.82a2.87,2.87,0,1,0-4-.5A2.87,2.87,0,0,0,996,389.82Z"/><path class="cls-3" d="M994.73,399.9a2.87,2.87,0,1,0-4-.51A2.88,2.88,0,0,0,994.73,399.9Z"/><path class="cls-3" d="M1079.09,461.69a2.87,2.87,0,1,0-4-.51A2.87,2.87,0,0,0,1079.09,461.69Z"/><path class="cls-3" d="M1067.75,470.5a2.87,2.87,0,1,0-4-.51A2.88,2.88,0,0,0,1067.75,470.5Z"/><path class="cls-3" d="M1069,460.42a2.88,2.88,0,1,0-4-.5A2.87,2.87,0,0,0,1069,460.42Z"/><path class="cls-3" d="M1076.33,451.1a2.87,2.87,0,0,0,4,.51,2.83,2.83,0,0,0,1-1.39l-2.92-3.74a2.82,2.82,0,0,0-1.57.59A2.87,2.87,0,0,0,1076.33,451.1Z"/><path class="cls-3" d="M1073.2,469.49l2.18-2.78a2.77,2.77,0,0,0-1.08.52A2.89,2.89,0,0,0,1073.2,469.49Z"/><path class="cls-3" d="M1061.47,439a2.87,2.87,0,1,0-4-.51A2.87,2.87,0,0,0,1061.47,439Z"/><path class="cls-3" d="M1050.13,447.81a2.88,2.88,0,1,0-4-.51A2.87,2.87,0,0,0,1050.13,447.81Z"/><path class="cls-3" d="M1051.4,437.73a2.87,2.87,0,1,0-4-.5A2.88,2.88,0,0,0,1051.4,437.73Z"/><path class="cls-3" d="M1058.71,428.42a2.87,2.87,0,0,0,5-.78l-3-3.83a2.74,2.74,0,0,0-1.44.58A2.86,2.86,0,0,0,1058.71,428.42Z"/><path class="cls-3" d="M1060.21,449.08a2.88,2.88,0,1,0-4-.51A2.87,2.87,0,0,0,1060.21,449.08Z"/><path class="cls-3" d="M1067.52,439.76a2.88,2.88,0,0,0,4,.51,2.84,2.84,0,0,0,1-1.34l-3-3.79a2.87,2.87,0,0,0-2,4.62Z"/><path class="cls-3" d="M1070.28,450.35a2.87,2.87,0,1,0-4-.51A2.88,2.88,0,0,0,1070.28,450.35Z"/><path class="cls-3" d="M1058.94,459.16a2.88,2.88,0,1,0-4-.51A2.89,2.89,0,0,0,1058.94,459.16Z"/><path class="cls-3" d="M1043.85,416.31a2.87,2.87,0,1,0-4-.5A2.88,2.88,0,0,0,1043.85,416.31Z"/><path class="cls-3" d="M1032.51,425.12a2.88,2.88,0,1,0-4-.5A2.87,2.87,0,0,0,1032.51,425.12Z"/><path class="cls-3" d="M1033.77,415.05a2.87,2.87,0,1,0-4-.51A2.88,2.88,0,0,0,1033.77,415.05Z"/><path class="cls-3" d="M1041.09,405.73a2.87,2.87,0,0,0,4,.5,2.83,2.83,0,0,0,.88-1.16l-3.08-3.93a2.74,2.74,0,0,0-1.33.56A2.87,2.87,0,0,0,1041.09,405.73Z"/><path class="cls-3" d="M1042.58,426.39a2.87,2.87,0,1,0-4-.51A2.87,2.87,0,0,0,1042.58,426.39Z"/><path class="cls-3" d="M1049.9,417.07a2.85,2.85,0,0,0,4.93-.72l-3-3.88a3,3,0,0,0-1.39.57A2.87,2.87,0,0,0,1049.9,417.07Z"/><path class="cls-3" d="M1052.66,427.66a2.87,2.87,0,1,0-4-.51A2.87,2.87,0,0,0,1052.66,427.66Z"/><path class="cls-3" d="M1041.32,436.47a2.88,2.88,0,1,0-4-.51A2.87,2.87,0,0,0,1041.32,436.47Z"/><path class="cls-3" d="M1026.23,393.62a2.87,2.87,0,1,0-4-.5A2.88,2.88,0,0,0,1026.23,393.62Z"/><path class="cls-3" d="M1014.88,402.43a2.87,2.87,0,1,0-4-.5A2.87,2.87,0,0,0,1014.88,402.43Z"/><path class="cls-3" d="M1016.15,392.36a2.87,2.87,0,1,0-4-.51A2.88,2.88,0,0,0,1016.15,392.36Z"/><path class="cls-3" d="M1023.46,383a2.89,2.89,0,0,0,4,.51,2.92,2.92,0,0,0,.83-1.06l-3.15-4a2.75,2.75,0,0,0-1.21.54A2.88,2.88,0,0,0,1023.46,383Z"/><path class="cls-3" d="M1025,403.7a2.87,2.87,0,1,0-4-.51A2.87,2.87,0,0,0,1025,403.7Z"/><path class="cls-3" d="M1032.28,394.38a2.85,2.85,0,0,0,4.88-.6l-3.11-4a2.85,2.85,0,0,0-1.77,4.58Z"/><path class="cls-3" d="M1035,405a2.87,2.87,0,1,0-4-.51A2.88,2.88,0,0,0,1035,405Z"/><path class="cls-3" d="M1023.7,413.78a2.88,2.88,0,1,0-4-.51A2.87,2.87,0,0,0,1023.7,413.78Z"/><path class="cls-3" d="M1008.61,370.93a2.87,2.87,0,1,0-4-.5A2.87,2.87,0,0,0,1008.61,370.93Z"/><path class="cls-3" d="M997.26,379.75a2.87,2.87,0,1,0-4-.51A2.88,2.88,0,0,0,997.26,379.75Z"/><path class="cls-3" d="M998.53,369.67a2.87,2.87,0,1,0-4-.51A2.88,2.88,0,0,0,998.53,369.67Z"/><path class="cls-3" d="M1005.84,360.35a2.88,2.88,0,0,0,4,.51,3,3,0,0,0,.79-.95l-3.22-4.11a2.81,2.81,0,0,0-1.09.52A2.88,2.88,0,0,0,1005.84,360.35Z"/><path class="cls-3" d="M1007.34,381a2.87,2.87,0,1,0-4-.5A2.88,2.88,0,0,0,1007.34,381Z"/><path class="cls-3" d="M1014.65,371.69a2.88,2.88,0,0,0,4,.51,3,3,0,0,0,.8-1l-3.18-4.07a2.86,2.86,0,0,0-1.66,4.56Z"/><path class="cls-3" d="M1017.42,382.28a2.88,2.88,0,1,0-4-.51A2.88,2.88,0,0,0,1017.42,382.28Z"/><path class="cls-3" d="M1006.07,391.09a2.87,2.87,0,1,0-4-.51A2.87,2.87,0,0,0,1006.07,391.09Z"/><path class="cls-3" d="M991,348.25a2.87,2.87,0,0,0-1.6-5.13q-1.08,2.52-2,5.08A2.88,2.88,0,0,0,991,348.25Z"/><path class="cls-3" d="M993,337.33l-.48-.62c-.34.61-.65,1.23-1,1.85a3,3,0,0,0,.72-.39A2.89,2.89,0,0,0,993,337.33Z"/><path class="cls-3" d="M985.69,357.82a2.88,2.88,0,1,0,.5-4,2.92,2.92,0,0,0-.71.82l-.39,1.56A3,3,0,0,0,985.69,357.82Z"/><path class="cls-3" d="M997,349a2.87,2.87,0,0,0,4,.5,2.68,2.68,0,0,0,.76-.89l-3.25-4.15A2.86,2.86,0,0,0,997,349Z"/><path class="cls-3" d="M999.8,359.59a2.88,2.88,0,1,0-4-.51A2.87,2.87,0,0,0,999.8,359.59Z"/><path class="cls-3" d="M988.45,368.4a2.87,2.87,0,1,0-4-.51A2.87,2.87,0,0,0,988.45,368.4Z"/><path class="cls-2" d="M1177.12,336.71c15.8,29.05,11.65,66.24-10.07,90.2l-54.22,64.33-27.35,32.45-27.31,32.4-1.69.48a43.91,43.91,0,0,0-31.21-30.45l4.69-1.38,27.52-35.16,27.71-35.4ZM1089.5,487.14a3.13,3.13,0,1,0-3.14,3.13A3.13,3.13,0,0,0,1089.5,487.14Z"/><line class="cls-4" x1="1086.74" y1="524.74" x2="1108.31" y2="549.81"/><path class="cls-4" d="M1083.24,452.65,992.5,336.71c-15.82,29.05-11.67,66.24,10,90.2l51.83,60.23"/><line class="cls-4" x1="1139.64" y1="524.74" x2="1114.57" y2="492.7"/><path class="cls-4" d="M1030,524.74l27.52-35.16,27.71-35.4,91.93-117.47c15.8,29.05,11.65,66.24-10.07,90.2l-54.22,64.33-27.35,32.45-27.31,32.4"/><path class="cls-4" d="M1086.36,484a3.14,3.14,0,1,1-3.12,3.14A3.13,3.13,0,0,1,1086.36,484Z"/><path class="cls-4" d="M1056.48,556.57a43.21,43.21,0,0,1,1.69,12,43.92,43.92,0,1,1-1.69-12Z"/><circle class="cls-4" cx="1014.29" cy="568.62" r="18.81"/><path class="cls-4" d="M1111.81,551.4a43.9,43.9,0,1,0,28.31-25A43.72,43.72,0,0,0,1111.81,551.4Z"/><circle class="cls-4" cx="1152.19" cy="568.62" r="18.81"/><path class="cls-2" d="M823.3,360.78V374.3H772.7V360.78a25.3,25.3,0,0,1,50.6,0Z"/><path class="cls-3" d="M774.61,371.76a3,3,0,0,0-1.91.7v1.84h4.89A3,3,0,0,0,774.61,371.76Z"/><path class="cls-3" d="M789.73,371.76a3,3,0,0,0-3,2.54h6A3,3,0,0,0,789.73,371.76Z"/><path class="cls-3" d="M782.17,349.08a3,3,0,1,0,3,3A3,3,0,0,0,782.17,349.08Z"/><path class="cls-3" d="M789.73,341.52a3,3,0,1,0,3,3A3,3,0,0,0,789.73,341.52Z"/><path class="cls-3" d="M777.64,359.67a3,3,0,0,0-4.65-2.55,25.94,25.94,0,0,0-.29,3.66V362a3,3,0,0,0,1.91.7A3,3,0,0,0,777.64,359.67Z"/><path class="cls-3" d="M789.73,356.64a3,3,0,1,0,3,3A3,3,0,0,0,789.73,356.64Z"/><path class="cls-3" d="M782.17,364.2a3,3,0,1,0,3,3A3,3,0,0,0,782.17,364.2Z"/><path class="cls-3" d="M804.85,371.76a3,3,0,0,0-3,2.54h6A3,3,0,0,0,804.85,371.76Z"/><path class="cls-3" d="M820,371.76a3,3,0,0,0-3,2.54h6A3,3,0,0,0,820,371.76Z"/><path class="cls-3" d="M812.41,349.08a3,3,0,1,0,3,3A3,3,0,0,0,812.41,349.08Z"/><path class="cls-3" d="M797.29,349.08a3,3,0,1,0,3,3A3,3,0,0,0,797.29,349.08Z"/><path class="cls-3" d="M804.85,341.52a3,3,0,1,0,3,3A3,3,0,0,0,804.85,341.52Z"/><path class="cls-3" d="M819.51,347.52a25.34,25.34,0,0,0-2.52-3.4,2.94,2.94,0,0,0,2.52,3.4Z"/><path class="cls-3" d="M804.85,356.64a3,3,0,1,0,3,3A3,3,0,0,0,804.85,356.64Z"/><path class="cls-3" d="M817,359.67a3,3,0,1,0,3-3A3,3,0,0,0,817,359.67Z"/><path class="cls-3" d="M812.41,364.2a3,3,0,1,0,3,3A3,3,0,0,0,812.41,364.2Z"/><path class="cls-3" d="M797.29,364.2a3,3,0,1,0,3,3A3,3,0,0,0,797.29,364.2Z"/><path class="cls-3" d="M812.4,340a26.19,26.19,0,0,0-2.64-1.61A3,3,0,0,0,812.4,340Z"/><path class="cls-3" d="M797.29,340a3,3,0,0,0,2.67-4.42c-.64,0-1.29-.09-1.94-.09a26.66,26.66,0,0,0-3.49.26,3.15,3.15,0,0,0-.26,1.23A3,3,0,0,0,797.29,340Z"/><path class="cls-2" d="M772.7,335.5H798a25.29,25.29,0,0,0-25.32,25.28V588.42a25.28,25.28,0,0,1-50.56,0V575.76H608.31v-215a25.26,25.26,0,0,1,25.28-25.28H772.7Z"/><path class="cls-2" d="M747.42,613.7H602a25.26,25.26,0,0,1-25.28-25.28v-6.33a6.34,6.34,0,0,1,6.33-6.33H722.14v12.66A25.26,25.26,0,0,0,747.42,613.7Z"/><path class="cls-3" d="M596.53,596.18a3,3,0,1,0,3,3A3,3,0,0,0,596.53,596.18Z"/><path class="cls-3" d="M584.44,599.2a3,3,0,0,0-5.83-1.13,25.59,25.59,0,0,0,2.15,4.08,2.81,2.81,0,0,0,.65.07A3,3,0,0,0,584.44,599.2Z"/><path class="cls-3" d="M589,588.62a3,3,0,1,0,3,3A3,3,0,0,0,589,588.62Z"/><path class="cls-3" d="M604.09,588.62a3,3,0,1,0,3,3A3,3,0,0,0,604.09,588.62Z"/><path class="cls-3" d="M592,606.76a3,3,0,1,0-5.61,1.55c.64.5,1.31,1,2,1.41a2.78,2.78,0,0,0,.58.06A3,3,0,0,0,592,606.76Z"/><path class="cls-3" d="M604.09,603.74a3,3,0,1,0,3,3A3,3,0,0,0,604.09,603.74Z"/><path class="cls-3" d="M596.53,611.3a3,3,0,0,0-2.37,1.16,25.13,25.13,0,0,0,5.29,1.12A3,3,0,0,0,596.53,611.3Z"/><path class="cls-3" d="M589,579.54a3,3,0,0,0,3-3,3.24,3.24,0,0,0-.11-.76h-5.83a2.79,2.79,0,0,0-.11.76A3,3,0,0,0,589,579.54Z"/><path class="cls-3" d="M604.09,579.54a3,3,0,0,0,3-3,3.24,3.24,0,0,0-.11-.76h-5.83a2.79,2.79,0,0,0-.11.76A3,3,0,0,0,604.09,579.54Z"/><path class="cls-3" d="M596.53,581.06a3,3,0,1,0,3,3A3,3,0,0,0,596.53,581.06Z"/><path class="cls-3" d="M581.41,581.06a3,3,0,1,0,3,3A3,3,0,0,0,581.41,581.06Z"/><path class="cls-3" d="M626.77,602.22a3,3,0,1,0-3-3A3,3,0,0,0,626.77,602.22Z"/><path class="cls-3" d="M611.65,602.22a3,3,0,1,0-3-3A3,3,0,0,0,611.65,602.22Z"/><path class="cls-3" d="M619.21,594.66a3,3,0,1,0-3-3A3,3,0,0,0,619.21,594.66Z"/><path class="cls-3" d="M634.33,594.66a3,3,0,1,0-3-3A3,3,0,0,0,634.33,594.66Z"/><path class="cls-3" d="M619.21,609.78a3,3,0,1,0-3-3A3,3,0,0,0,619.21,609.78Z"/><path class="cls-3" d="M634.33,609.78a3,3,0,1,0-3-3A3,3,0,0,0,634.33,609.78Z"/><path class="cls-3" d="M626.77,611.3a3,3,0,0,0-3,2.4h5.92A3,3,0,0,0,626.77,611.3Z"/><path class="cls-3" d="M611.65,611.3a3,3,0,0,0-3,2.4h5.92A3,3,0,0,0,611.65,611.3Z"/><path class="cls-3" d="M619.21,579.54a3,3,0,0,0,3-3,3.24,3.24,0,0,0-.11-.76H616.3a2.79,2.79,0,0,0-.11.76A3,3,0,0,0,619.21,579.54Z"/><path class="cls-3" d="M634.33,579.54a3,3,0,0,0,3-3,3.24,3.24,0,0,0-.11-.76h-5.83a2.79,2.79,0,0,0-.11.76A3,3,0,0,0,634.33,579.54Z"/><path class="cls-3" d="M626.77,587.1a3,3,0,1,0-3-3A3,3,0,0,0,626.77,587.1Z"/><path class="cls-3" d="M611.65,587.1a3,3,0,1,0-3-3A3,3,0,0,0,611.65,587.1Z"/><path class="cls-3" d="M657,602.22a3,3,0,1,0-3-3A3,3,0,0,0,657,602.22Z"/><path class="cls-3" d="M641.89,602.22a3,3,0,1,0-3-3A3,3,0,0,0,641.89,602.22Z"/><path class="cls-3" d="M649.45,594.66a3,3,0,1,0-3-3A3,3,0,0,0,649.45,594.66Z"/><path class="cls-3" d="M664.57,594.66a3,3,0,1,0-3-3A3,3,0,0,0,664.57,594.66Z"/><path class="cls-3" d="M649.45,609.78a3,3,0,1,0-3-3A3,3,0,0,0,649.45,609.78Z"/><path class="cls-3" d="M664.57,609.78a3,3,0,1,0-3-3A3,3,0,0,0,664.57,609.78Z"/><path class="cls-3" d="M657,611.3a3,3,0,0,0-3,2.4H660A3,3,0,0,0,657,611.3Z"/><path class="cls-3" d="M641.89,611.3a3,3,0,0,0-3,2.4h5.92A3,3,0,0,0,641.89,611.3Z"/><path class="cls-3" d="M649.45,579.54a3,3,0,0,0,3-3,3.24,3.24,0,0,0-.11-.76h-5.83a2.79,2.79,0,0,0-.11.76A3,3,0,0,0,649.45,579.54Z"/><path class="cls-3" d="M664.57,579.54a3,3,0,0,0,3-3,3.24,3.24,0,0,0-.11-.76h-5.83a2.79,2.79,0,0,0-.11.76A3,3,0,0,0,664.57,579.54Z"/><path class="cls-3" d="M657,587.1a3,3,0,1,0-3-3A3,3,0,0,0,657,587.1Z"/><path class="cls-3" d="M641.89,587.1a3,3,0,1,0-3-3A3,3,0,0,0,641.89,587.1Z"/><path class="cls-3" d="M687.25,602.22a3,3,0,1,0-3-3A3,3,0,0,0,687.25,602.22Z"/><path class="cls-3" d="M672.13,602.22a3,3,0,1,0-3-3A3,3,0,0,0,672.13,602.22Z"/><path class="cls-3" d="M679.69,594.66a3,3,0,1,0-3-3A3,3,0,0,0,679.69,594.66Z"/><path class="cls-3" d="M694.81,594.66a3,3,0,1,0-3-3A3,3,0,0,0,694.81,594.66Z"/><path class="cls-3" d="M679.69,609.78a3,3,0,1,0-3-3A3,3,0,0,0,679.69,609.78Z"/><path class="cls-3" d="M694.81,609.78a3,3,0,1,0-3-3A3,3,0,0,0,694.81,609.78Z"/><path class="cls-3" d="M687.25,611.3a3,3,0,0,0-3,2.4h5.92A3,3,0,0,0,687.25,611.3Z"/><path class="cls-3" d="M672.13,611.3a3,3,0,0,0-3,2.4h5.92A3,3,0,0,0,672.13,611.3Z"/><path class="cls-3" d="M679.69,579.54a3,3,0,0,0,3-3,3.24,3.24,0,0,0-.11-.76h-5.83a2.79,2.79,0,0,0-.11.76A3,3,0,0,0,679.69,579.54Z"/><path class="cls-3" d="M694.81,579.54a3,3,0,0,0,3-3,3.24,3.24,0,0,0-.11-.76H691.9a2.79,2.79,0,0,0-.11.76A3,3,0,0,0,694.81,579.54Z"/><path class="cls-3" d="M687.25,587.1a3,3,0,1,0-3-3A3,3,0,0,0,687.25,587.1Z"/><path class="cls-3" d="M672.13,587.1a3,3,0,1,0-3-3A3,3,0,0,0,672.13,587.1Z"/><path class="cls-3" d="M717.49,602.22a3,3,0,1,0-3-3A3,3,0,0,0,717.49,602.22Z"/><path class="cls-3" d="M702.37,602.22a3,3,0,1,0-3-3A3,3,0,0,0,702.37,602.22Z"/><path class="cls-3" d="M709.93,594.66a3,3,0,1,0-3-3A3,3,0,0,0,709.93,594.66Z"/><path class="cls-3" d="M722.64,593.44a25.29,25.29,0,0,1-.4-2.9,3.07,3.07,0,0,0-.21,1.1A3,3,0,0,0,722.64,593.44Z"/><path class="cls-3" d="M709.93,609.78a3,3,0,1,0-3-3A3,3,0,0,0,709.93,609.78Z"/><path class="cls-3" d="M725.05,609.78a3,3,0,1,0-3-3A3,3,0,0,0,725.05,609.78Z"/><path class="cls-3" d="M717.49,611.3a3,3,0,0,0-3,2.4h5.92A3,3,0,0,0,717.49,611.3Z"/><path class="cls-3" d="M702.37,611.3a3,3,0,0,0-3,2.4h5.92A3,3,0,0,0,702.37,611.3Z"/><path class="cls-3" d="M709.93,579.54a3,3,0,0,0,3-3,3.24,3.24,0,0,0-.11-.76H707a2.79,2.79,0,0,0-.11.76A3,3,0,0,0,709.93,579.54Z"/><path class="cls-3" d="M722.14,577.27v-1.5a2.61,2.61,0,0,0,0,1.5Z"/><path class="cls-3" d="M717.49,587.1a3,3,0,1,0-3-3A3,3,0,0,0,717.49,587.1Z"/><path class="cls-3" d="M702.37,587.1a3,3,0,1,0-3-3A3,3,0,0,0,702.37,587.1Z"/><path class="cls-3" d="M747.42,613.7a25.06,25.06,0,0,1-2.61-.13s0,.09,0,.13Z"/><path class="cls-3" d="M732.61,611.3a3,3,0,0,0-3,2.4h5.92A3,3,0,0,0,732.61,611.3Z"/><path class="cls-4" d="M658.91,335.5H633.59a25.26,25.26,0,0,0-25.28,25.28v215"/><polyline class="cls-4" points="772.7 386.1 772.7 374.3 772.7 373.44"/><path class="cls-4" d="M658.91,335.5H798a25.3,25.3,0,0,1,25.28,25.28V374.3H772.7"/><path class="cls-4" d="M798,335.5a25.29,25.29,0,0,0-25.32,25.28v12.66"/><path class="cls-4" d="M747.42,613.7a25.26,25.26,0,0,1-25.28-25.28V575.76H583a6.34,6.34,0,0,0-6.33,6.33v6.33A25.26,25.26,0,0,0,602,613.7H747.42a25.27,25.27,0,0,0,25.28-25.28V386.1"/><path class="cls-2" d="M349.81,445.05v38.32a24,24,0,0,1-37.45,19.92l-.81-.16a24.08,24.08,0,0,0-9.8-30v-48.2a24,24,0,1,1,48.06,0Z"/><path class="cls-3" d="M306.12,466.91a3,3,0,0,0-3-3v6A3,3,0,0,0,306.12,466.91Z"/><path class="cls-3" d="M306.12,436.67a3,3,0,0,0-3-3v6A3,3,0,0,0,306.12,436.67Z"/><path class="cls-3" d="M306.12,451.79a3,3,0,0,0-3-3v6A3,3,0,0,0,306.12,451.79Z"/><path class="cls-3" d="M306.12,421.55a3,3,0,0,0-2.45-3,23.75,23.75,0,0,0-.52,4.95v1A3,3,0,0,0,306.12,421.55Z"/><path class="cls-3" d="M325.77,501.68a3,3,0,0,0-3,3,2.91,2.91,0,0,0,.15.89,24.16,24.16,0,0,0,4.28.4c.46,0,.9,0,1.35-.07a2.94,2.94,0,0,0,.27-1.22A3,3,0,0,0,325.77,501.68Z"/><path class="cls-3" d="M318.21,494.12a3,3,0,1,0,3,3A3,3,0,0,0,318.21,494.12Z"/><path class="cls-3" d="M333.33,494.12a3,3,0,1,0,3,3A3,3,0,0,0,333.33,494.12Z"/><path class="cls-3" d="M325.77,471.44a3,3,0,1,0,3,3A3,3,0,0,0,325.77,471.44Z"/><path class="cls-3" d="M313.68,474.47a3,3,0,1,0-6.05,0,3.17,3.17,0,0,0,.14.87,24.37,24.37,0,0,1,1.73,1.92,2.91,2.91,0,0,0,1.15.23A3,3,0,0,0,313.68,474.47Z"/><path class="cls-3" d="M318.21,463.88a3,3,0,1,0,3,3A3,3,0,0,0,318.21,463.88Z"/><path class="cls-3" d="M333.33,463.88a3,3,0,1,0,3,3A3,3,0,0,0,333.33,463.88Z"/><path class="cls-3" d="M318.21,479a3,3,0,1,0,3,3A3,3,0,0,0,318.21,479Z"/><path class="cls-3" d="M333.33,479a3,3,0,1,0,3,3A3,3,0,0,0,333.33,479Z"/><path class="cls-3" d="M325.77,486.56a3,3,0,1,0,3,3A3,3,0,0,0,325.77,486.56Z"/><path class="cls-3" d="M325.77,441.2a3,3,0,1,0,3,3A3,3,0,0,0,325.77,441.2Z"/><path class="cls-3" d="M310.65,441.2a3,3,0,1,0,3,3A3,3,0,0,0,310.65,441.2Z"/><path class="cls-3" d="M318.21,433.64a3,3,0,1,0,3,3A3,3,0,0,0,318.21,433.64Z"/><path class="cls-3" d="M333.33,433.64a3,3,0,1,0,3,3A3,3,0,0,0,333.33,433.64Z"/><path class="cls-3" d="M318.21,448.76a3,3,0,1,0,3,3A3,3,0,0,0,318.21,448.76Z"/><path class="cls-3" d="M333.33,448.76a3,3,0,1,0,3,3A3,3,0,0,0,333.33,448.76Z"/><path class="cls-3" d="M325.77,456.32a3,3,0,1,0,3,3A3,3,0,0,0,325.77,456.32Z"/><path class="cls-3" d="M310.65,456.32a3,3,0,1,0,3,3A3,3,0,0,0,310.65,456.32Z"/><path class="cls-3" d="M325.77,411a3,3,0,1,0,3,3A3,3,0,0,0,325.77,411Z"/><path class="cls-3" d="M310.65,411a3,3,0,1,0,3,3A3,3,0,0,0,310.65,411Z"/><path class="cls-3" d="M318.21,403.4a3,3,0,1,0,3,3A3,3,0,0,0,318.21,403.4Z"/><path class="cls-3" d="M333.33,403.4a3,3,0,1,0,3,3A3,3,0,0,0,333.33,403.4Z"/><path class="cls-3" d="M318.21,418.52a3,3,0,1,0,3,3A3,3,0,0,0,318.21,418.52Z"/><path class="cls-3" d="M333.33,418.52a3,3,0,1,0,3,3A3,3,0,0,0,333.33,418.52Z"/><path class="cls-3" d="M325.77,426.08a3,3,0,1,0,3,3A3,3,0,0,0,325.77,426.08Z"/><path class="cls-3" d="M310.65,426.08a3,3,0,1,0,3,3A3,3,0,0,0,310.65,426.08Z"/><path class="cls-3" d="M325.77,401.89a3,3,0,0,0,2.94-2.32c-.51,0-1-.07-1.53-.07a24.67,24.67,0,0,0-4.24.39A3,3,0,0,0,325.77,401.89Z"/><path class="cls-3" d="M338.23,503.3a25.1,25.1,0,0,0,2.68-1.62h0A3,3,0,0,0,338.23,503.3Z"/><path class="cls-3" d="M345.43,497.15a2.58,2.58,0,0,0,0,.39,23.42,23.42,0,0,0,2.38-3.36A3,3,0,0,0,345.43,497.15Z"/><path class="cls-3" d="M340.89,471.44a3,3,0,1,0,3,3A3,3,0,0,0,340.89,471.44Z"/><path class="cls-3" d="M348.45,463.88a3,3,0,1,0,2.76,4.25v-2.45A3,3,0,0,0,348.45,463.88Z"/><path class="cls-3" d="M348.45,479a3,3,0,1,0,2.69,4.38c0-.47.07-.93.07-1.41V480.8A3,3,0,0,0,348.45,479Z"/><path class="cls-3" d="M340.89,486.56a3,3,0,1,0,3,3A3,3,0,0,0,340.89,486.56Z"/><path class="cls-3" d="M340.89,441.2a3,3,0,1,0,3,3A3,3,0,0,0,340.89,441.2Z"/><path class="cls-3" d="M348.45,433.64a3,3,0,1,0,2.76,4.25v-2.45A3,3,0,0,0,348.45,433.64Z"/><path class="cls-3" d="M348.45,448.76a3,3,0,1,0,2.76,4.25v-2.45A3,3,0,0,0,348.45,448.76Z"/><path class="cls-3" d="M340.89,456.32a3,3,0,1,0,3,3A3,3,0,0,0,340.89,456.32Z"/><path class="cls-3" d="M340.89,411a3,3,0,1,0,3,3A3,3,0,0,0,340.89,411Z"/><path class="cls-3" d="M348.45,418.52a3,3,0,1,0,2.73,4.32,23.82,23.82,0,0,0-.29-3.07A3,3,0,0,0,348.45,418.52Z"/><path class="cls-3" d="M340.89,426.08a3,3,0,1,0,3,3A3,3,0,0,0,340.89,426.08Z"/><path class="cls-2" d="M301.75,437.26v35.87a23.93,23.93,0,0,0-12.34-3.41h-35.7V424.93a24,24,0,1,1,48,0Z"/><path class="cls-3" d="M254.93,465.28a3.1,3.1,0,0,0-1.22.26v4.18h3.88a2.93,2.93,0,0,0,.37-1.41A3,3,0,0,0,254.93,465.28Z"/><path class="cls-3" d="M270.05,465.28a3,3,0,0,0-3,3,2.93,2.93,0,0,0,.37,1.41h5.31a2.93,2.93,0,0,0,.37-1.41A3,3,0,0,0,270.05,465.28Z"/><path class="cls-3" d="M262.49,442.6a3,3,0,1,0,3,3A3,3,0,0,0,262.49,442.6Z"/><path class="cls-3" d="M258,438.07a3,3,0,0,0-3-3,3.1,3.1,0,0,0-1.22.26v5.53a3.1,3.1,0,0,0,1.22.26A3,3,0,0,0,258,438.07Z"/><path class="cls-3" d="M270.05,435a3,3,0,1,0,3,3A3,3,0,0,0,270.05,435Z"/><path class="cls-3" d="M258,453.19a3,3,0,0,0-3-3,3.1,3.1,0,0,0-1.22.26V456a3.1,3.1,0,0,0,1.22.26A3,3,0,0,0,258,453.19Z"/><path class="cls-3" d="M270.05,450.16a3,3,0,1,0,3,3A3,3,0,0,0,270.05,450.16Z"/><path class="cls-3" d="M262.49,457.72a3,3,0,1,0,3,3A3,3,0,0,0,262.49,457.72Z"/><path class="cls-3" d="M262.49,412.36a3,3,0,1,0,3,3A3,3,0,0,0,262.49,412.36Z"/><path class="cls-3" d="M270.05,404.8a3,3,0,1,0,3,3A3,3,0,0,0,270.05,404.8Z"/><path class="cls-3" d="M258,423a3,3,0,0,0-3-3,2.91,2.91,0,0,0-.72.1,24.7,24.7,0,0,0-.5,4.91v.78a3.1,3.1,0,0,0,1.22.26A3,3,0,0,0,258,423Z"/><path class="cls-3" d="M270.05,419.92a3,3,0,1,0,3,3A3,3,0,0,0,270.05,419.92Z"/><path class="cls-3" d="M262.49,427.48a3,3,0,1,0,3,3A3,3,0,0,0,262.49,427.48Z"/><path class="cls-3" d="M285.17,465.28a3,3,0,0,0-3,3,2.93,2.93,0,0,0,.37,1.41h5.31a2.93,2.93,0,0,0,.37-1.41A3,3,0,0,0,285.17,465.28Z"/><path class="cls-3" d="M297.27,468.31a3,3,0,0,0,3,3,3,3,0,0,0,1.46-.39v-5.27a3,3,0,0,0-1.46-.39A3,3,0,0,0,297.27,468.31Z"/><path class="cls-3" d="M292.73,442.6a3,3,0,1,0,3,3A3,3,0,0,0,292.73,442.6Z"/><path class="cls-3" d="M277.61,442.6a3,3,0,1,0,3,3A3,3,0,0,0,277.61,442.6Z"/><path class="cls-3" d="M285.17,435a3,3,0,1,0,3,3A3,3,0,0,0,285.17,435Z"/><path class="cls-3" d="M297.27,438.07a3,3,0,0,0,3,3,3,3,0,0,0,1.46-.39v-5.27a3,3,0,0,0-1.46-.39A3,3,0,0,0,297.27,438.07Z"/><path class="cls-3" d="M285.17,450.16a3,3,0,1,0,3,3A3,3,0,0,0,285.17,450.16Z"/><path class="cls-3" d="M297.27,453.19a3,3,0,0,0,3,3,3,3,0,0,0,1.46-.39v-5.27a3,3,0,0,0-1.46-.39A3,3,0,0,0,297.27,453.19Z"/><path class="cls-3" d="M292.73,457.72a3,3,0,1,0,3,3A3,3,0,0,0,292.73,457.72Z"/><path class="cls-3" d="M277.61,457.72a3,3,0,1,0,3,3A3,3,0,0,0,277.61,457.72Z"/><path class="cls-3" d="M292.73,412.36a3,3,0,1,0,3,3A3,3,0,0,0,292.73,412.36Z"/><path class="cls-3" d="M277.61,412.36a3,3,0,1,0,3,3A3,3,0,0,0,277.61,412.36Z"/><path class="cls-3" d="M285.17,404.8a3,3,0,1,0,3,3A3,3,0,0,0,285.17,404.8Z"/><path class="cls-3" d="M285.17,419.92a3,3,0,1,0,3,3A3,3,0,0,0,285.17,419.92Z"/><path class="cls-3" d="M297.27,423a3,3,0,0,0,3,3,3,3,0,0,0,1.46-.39v-.65a24.72,24.72,0,0,0-.48-4.83,2.89,2.89,0,0,0-1-.18A3,3,0,0,0,297.27,423Z"/><path class="cls-3" d="M292.73,427.48a3,3,0,1,0,3,3A3,3,0,0,0,292.73,427.48Z"/><path class="cls-3" d="M277.61,427.48a3,3,0,1,0,3,3A3,3,0,0,0,277.61,427.48Z"/><path class="cls-3" d="M277.61,403.29a3,3,0,0,0,2.91-2.22,23.31,23.31,0,0,0-2.78-.17,25.11,25.11,0,0,0-3,.2A3,3,0,0,0,277.61,403.29Z"/><path class="cls-2" d="M301.75,473.13a24.08,24.08,0,0,1,9.8,30l.81.16a24,24,0,0,0,37.45-19.92V353.48a24,24,0,1,1,48.06,0v187a79.22,79.22,0,0,1-79.22,79.23H284.88a79.23,79.23,0,0,1-79.23-79.23V498a28.22,28.22,0,0,1,28.22-28.23h55.54A23.93,23.93,0,0,1,301.75,473.13Z"/><path class="cls-2" d="M253.71,445.05v24.67H233.87A28.22,28.22,0,0,0,205.65,498V353.48a24,24,0,1,1,48.06,0v91.57Z"/><path class="cls-4" d="M397.87,445.05v95.47a79.22,79.22,0,0,1-79.22,79.23H284.88a79.23,79.23,0,0,1-79.23-79.23V445.05"/><path class="cls-4" d="M205.65,445.05V353.48a24,24,0,1,1,48.06,0v71.45"/><path class="cls-4" d="M349.81,424.93V353.48a24,24,0,1,1,48.06,0v91.57"/><path class="cls-4" d="M253.71,469.72V424.93a24,24,0,1,1,48,0"/><path class="cls-4" d="M301.75,473.15V424.93a24,24,0,1,1,48.06,0v58.44a24,24,0,0,1-37.45,19.92"/><path class="cls-4" d="M205.65,498a28.22,28.22,0,0,1,28.22-28.23h55.54a24,24,0,1,1,0,48.06H252"/><path class="cls-4" d="M279.68,517.78a26,26,0,0,1,26,26v16.87"/></g><g id="Text"><path class="cls-5" d="M958.43,752.24v-.35a2.27,2.27,0,0,1,2.48-2.48h2.41a2.27,2.27,0,0,1,2.48,2.48v.92c0,3.54,1.56,4.82,4,4.82s4-1.28,4-5c0-4.11-1.56-6.74-6.66-11.2-6.52-5.74-8.65-9.78-8.65-15.45,0-7.8,4-12.34,11.62-12.34s11.34,4.68,11.34,12.05a2.21,2.21,0,0,1-2.48,2.48h-2.41a2.21,2.21,0,0,1-2.48-2.48v-.07c0-3.54-1.41-4.89-3.89-4.89s-3.9,1.35-3.9,4.75c0,3.61,1.63,6.24,6.73,10.7,6.52,5.74,8.58,9.71,8.58,15.88,0,8.08-4.11,12.62-11.77,12.62S958.43,760.18,958.43,752.24Z"/><path class="cls-5" d="M992.73,752.52V725.87c0-7.65,4-12.19,11.48-12.19s11.49,4.54,11.49,12.19v2.77a2.28,2.28,0,0,1-2.48,2.48h-2.41a2.28,2.28,0,0,1-2.49-2.48v-3.26c0-3.26-1.56-4.61-3.89-4.61s-3.9,1.35-3.9,4.61v27.71c0,3.26,1.56,4.54,3.9,4.54s3.89-1.28,3.89-4.54V748a2.28,2.28,0,0,1,2.49-2.48h2.41a2.28,2.28,0,0,1,2.48,2.48v4.53c0,7.66-4,12.2-11.49,12.2S992.73,760.18,992.73,752.52Z"/><path class="cls-5" d="M1027.46,761.53V716.87a2.27,2.27,0,0,1,2.48-2.48h2.84a2.27,2.27,0,0,1,2.48,2.48v44.66a2.27,2.27,0,0,1-2.48,2.48h-2.84A2.27,2.27,0,0,1,1027.46,761.53Z"/><path class="cls-5" d="M1046.81,752.24v-.35a2.27,2.27,0,0,1,2.48-2.48h2.41a2.27,2.27,0,0,1,2.48,2.48v.92c0,3.54,1.56,4.82,4,4.82s4-1.28,4-5c0-4.11-1.56-6.74-6.66-11.2-6.52-5.74-8.65-9.78-8.65-15.45,0-7.8,4-12.34,11.62-12.34s11.34,4.68,11.34,12.05a2.21,2.21,0,0,1-2.48,2.48H1065a2.21,2.21,0,0,1-2.48-2.48v-.07c0-3.54-1.41-4.89-3.9-4.89s-3.89,1.35-3.89,4.75c0,3.61,1.63,6.24,6.73,10.7,6.52,5.74,8.58,9.71,8.58,15.88,0,8.08-4.11,12.62-11.77,12.62S1046.81,760.18,1046.81,752.24Z"/><path class="cls-5" d="M1080.26,752.24v-.35a2.27,2.27,0,0,1,2.48-2.48h2.41a2.27,2.27,0,0,1,2.48,2.48v.92c0,3.54,1.56,4.82,4,4.82s4-1.28,4-5c0-4.11-1.56-6.74-6.66-11.2-6.52-5.74-8.65-9.78-8.65-15.45,0-7.8,4-12.34,11.63-12.34s11.34,4.68,11.34,12.05a2.21,2.21,0,0,1-2.48,2.48h-2.41a2.21,2.21,0,0,1-2.48-2.48v-.07c0-3.54-1.42-4.89-3.9-4.89s-3.9,1.35-3.9,4.75c0,3.61,1.63,6.24,6.73,10.7,6.52,5.74,8.58,9.71,8.58,15.88,0,8.08-4.11,12.62-11.77,12.62S1080.26,760.18,1080.26,752.24Z"/><path class="cls-5" d="M1114.49,752.24V726.16c0-7.94,4.18-12.48,11.84-12.48s11.84,4.54,11.84,12.48v26.08c0,7.94-4.19,12.48-11.84,12.48S1114.49,760.18,1114.49,752.24Zm15.88.5V725.66c0-3.54-1.56-4.89-4-4.89s-4,1.35-4,4.89v27.08c0,3.54,1.56,4.89,4,4.89S1130.37,756.28,1130.37,752.74Z"/><path class="cls-5" d="M1150.5,761.53V716.87a2.27,2.27,0,0,1,2.48-2.48h9.07c8.08,0,11.55,3.76,11.55,11.41v3.05c0,5.1-1.63,8.36-5.1,9.78v.14c3.9,1.21,5.17,4.89,5.17,10.49V758a15.54,15.54,0,0,0,.22,3.33,5,5,0,0,1,.14.93c0,1.13-.78,1.77-2.13,1.77h-3.12c-1.41,0-2.55-.64-2.69-2.13a25.18,25.18,0,0,1-.21-4v-9.07c0-4.61-1.35-6.1-4.89-6.1h-2.7v18.79a2.27,2.27,0,0,1-2.48,2.48H1153A2.27,2.27,0,0,1,1150.5,761.53Zm10.63-25.87c2.9,0,4.68-1.28,4.68-5.25v-3.83c0-3.54-1.21-5.1-4-5.1h-3.55v14.18Z"/><path class="cls-5" d="M1184.8,752.24v-.35a2.27,2.27,0,0,1,2.48-2.48h2.41a2.27,2.27,0,0,1,2.48,2.48v.92c0,3.54,1.56,4.82,4,4.82s4-1.28,4-5c0-4.11-1.56-6.74-6.66-11.2-6.52-5.74-8.65-9.78-8.65-15.45,0-7.8,4-12.34,11.63-12.34s11.34,4.68,11.34,12.05a2.21,2.21,0,0,1-2.48,2.48H1203a2.21,2.21,0,0,1-2.48-2.48v-.07c0-3.54-1.42-4.89-3.9-4.89s-3.9,1.35-3.9,4.75c0,3.61,1.63,6.24,6.73,10.7,6.52,5.74,8.58,9.71,8.58,15.88,0,8.08-4.11,12.62-11.77,12.62S1184.8,760.18,1184.8,752.24Z"/><path class="cls-5" d="M620.87,761.53V716.87a2.27,2.27,0,0,1,2.48-2.48h9c7.8,0,11.63,4.33,11.63,12.26v4.9c0,7.93-3.83,12.26-11.63,12.26h-3.68v17.72a2.28,2.28,0,0,1-2.49,2.48h-2.83A2.27,2.27,0,0,1,620.87,761.53Zm11.48-24.81c2.48,0,3.83-1.14,3.83-4.68v-5.88c0-3.55-1.35-4.68-3.83-4.68h-3.68v15.24Z"/><path class="cls-5" d="M651,761.88a3.21,3.21,0,0,1,.07-.64l7.44-44.58a2.42,2.42,0,0,1,2.63-2.27h6a2.41,2.41,0,0,1,2.62,2.27l7.45,44.58a3.21,3.21,0,0,1,.07.64c0,1.35-.85,2.13-2.34,2.13h-2.77a2.42,2.42,0,0,1-2.69-2.27l-1.06-7.58v.14h-9.15l-1.06,7.44a2.42,2.42,0,0,1-2.69,2.27h-2.2C651.84,764,651,763.23,651,761.88Zm16.52-14.32L663.89,723h-.14l-3.55,24.52Z"/><path class="cls-5" d="M688.34,761.53V716.87a2.27,2.27,0,0,1,2.48-2.48h9c7.8,0,11.63,4.33,11.63,12.26v4.9c0,7.93-3.83,12.26-11.63,12.26h-3.68v17.72a2.27,2.27,0,0,1-2.48,2.48h-2.84A2.27,2.27,0,0,1,688.34,761.53Zm11.48-24.81c2.48,0,3.83-1.14,3.83-4.68v-5.88c0-3.55-1.35-4.68-3.83-4.68h-3.68v15.24Z"/><path class="cls-5" d="M722.79,761.53V716.87a2.27,2.27,0,0,1,2.48-2.48h16.3a2.27,2.27,0,0,1,2.48,2.48V719a2.27,2.27,0,0,1-2.48,2.48h-11v13.11h8.22a2.27,2.27,0,0,1,2.48,2.48v2.13a2.27,2.27,0,0,1-2.48,2.48h-8.22v15.24h11a2.27,2.27,0,0,1,2.48,2.48v2.13a2.27,2.27,0,0,1-2.48,2.48h-16.3A2.27,2.27,0,0,1,722.79,761.53Z"/><path class="cls-5" d="M755.6,761.53V716.87a2.27,2.27,0,0,1,2.48-2.48h9.07c8.08,0,11.56,3.76,11.56,11.41v3.05c0,5.11-1.63,8.37-5.11,9.78v.14c3.9,1.21,5.18,4.89,5.18,10.49V758a16.27,16.27,0,0,0,.21,3.33,5,5,0,0,1,.14.93c0,1.13-.78,1.77-2.13,1.77h-3.11c-1.42,0-2.56-.64-2.7-2.13a25.18,25.18,0,0,1-.21-4v-9.07c0-4.61-1.35-6.1-4.89-6.1H763.4v18.79a2.28,2.28,0,0,1-2.48,2.48h-2.84A2.27,2.27,0,0,1,755.6,761.53Zm10.63-25.87c2.91,0,4.68-1.28,4.68-5.25v-3.83c0-3.54-1.21-5.1-4-5.1H763.4v14.18Z"/><path class="cls-5" d="M236.52,761.53V716.87a2.27,2.27,0,0,1,2.48-2.48h9.07c8.08,0,11.56,3.76,11.56,11.41v3.05c0,5.11-1.63,8.36-5.11,9.78v.14c3.9,1.21,5.18,4.89,5.18,10.49V758a16.27,16.27,0,0,0,.21,3.33,5,5,0,0,1,.14.93c0,1.13-.78,1.77-2.12,1.77h-3.12c-1.42,0-2.55-.64-2.7-2.13a25.18,25.18,0,0,1-.21-4v-9.07c0-4.61-1.35-6.1-4.89-6.1h-2.69v18.79a2.27,2.27,0,0,1-2.48,2.48H239A2.27,2.27,0,0,1,236.52,761.53Zm10.63-25.87c2.91,0,4.68-1.28,4.68-5.25v-3.83c0-3.54-1.2-5.1-4-5.1h-3.54v14.18Z"/><path class="cls-5" d="M271.6,752.24V726.16c0-7.94,4.19-12.48,11.84-12.48s11.84,4.54,11.84,12.48v26.08c0,7.94-4.18,12.48-11.84,12.48S271.6,760.18,271.6,752.24Zm15.88.5V725.66c0-3.54-1.56-4.89-4-4.89s-4,1.35-4,4.89v27.08c0,3.54,1.56,4.89,4,4.89S287.48,756.28,287.48,752.74Z"/><path class="cls-5" d="M307.11,752.52V725.87c0-7.65,4-12.19,11.48-12.19s11.49,4.54,11.49,12.19v2.77a2.27,2.27,0,0,1-2.48,2.48h-2.41a2.27,2.27,0,0,1-2.48-2.48v-3.26c0-3.26-1.56-4.61-3.9-4.61s-3.9,1.35-3.9,4.61v27.71c0,3.26,1.56,4.54,3.9,4.54s3.9-1.28,3.9-4.54V748a2.27,2.27,0,0,1,2.48-2.48h2.41a2.27,2.27,0,0,1,2.48,2.48v4.53c0,7.66-4,12.2-11.49,12.2S307.11,760.18,307.11,752.52Z"/><path class="cls-5" d="M341.84,761.53V716.87a2.27,2.27,0,0,1,2.48-2.48h2.84a2.27,2.27,0,0,1,2.48,2.48V735.3l9.28-19.07a3,3,0,0,1,2.91-1.84h2.41c1.42,0,2.2.64,2.2,1.63a2.74,2.74,0,0,1-.36,1.28l-8,15.31L366.79,761a4,4,0,0,1,.21,1.2c0,1.21-.78,1.85-2.2,1.85h-3a2.76,2.76,0,0,1-2.84-2.06l-6.16-20.06-3.12,6.31v13.33a2.27,2.27,0,0,1-2.48,2.48h-2.84A2.27,2.27,0,0,1,341.84,761.53Z"/></g></svg>